<svg width="79" height="78" viewBox="0 0 79 78" fill="none" xmlns="http://www.w3.org/2000/svg">
<path d="M29.0325 37.5145C28.6375 37.9033 28.44 38.3568 28.44 38.8752C28.44 39.3935 28.6375 39.8471 29.0325 40.2358L40.0925 51.1209C40.685 51.704 41.3934 51.8491 42.2176 51.5563C43.0392 51.266 43.45 50.6673 43.45 49.7602L43.45 27.9901C43.45 27.083 43.0392 26.4844 42.2176 26.1941C41.3934 25.9012 40.685 26.0464 40.0925 26.6295L29.0325 37.5145ZM4.71033e-07 38.8752C4.05873e-07 33.4974 1.03753 28.4437 3.11259 23.7139C5.18503 18.984 7.99874 14.8698 11.5537 11.371C15.1087 7.87222 19.2892 5.10302 24.095 3.06336C28.9008 1.02112 34.0358 5.27711e-07 39.5 4.63582e-07C44.9642 3.99453e-07 50.0992 1.02112 54.905 3.06336C59.7108 5.10302 63.8912 7.87222 67.4462 11.371C71.0012 14.8698 73.8163 18.984 75.8914 23.7139C77.9638 28.4437 79 33.4974 79 38.8752C79 44.2529 77.9638 49.3067 75.8914 54.0365C73.8163 58.7663 71.0012 62.8806 67.4462 66.3794C63.8912 69.8781 59.7108 72.6473 54.905 74.687C50.0992 76.7292 44.9642 77.7504 39.5 77.7504C34.0358 77.7504 28.9008 76.7292 24.095 74.687C19.2892 72.6473 15.1087 69.8781 11.5537 66.3794C7.99874 62.8806 5.18503 58.7663 3.1126 54.0365C1.03753 49.3067 5.36192e-07 44.2529 4.71033e-07 38.8752Z" fill="white" fill-opacity="0.3"/>
</svg>
