<svg xmlns="http://www.w3.org/2000/svg" width="151.396" height="67.396" viewBox="0 0 151.396 67.396">
  <g id="Group_124" data-name="Group 124" transform="translate(-237.555 -195.59)">
    <circle id="Ellipse_57" data-name="Ellipse 57" cx="8.2" cy="8.2" r="8.2" transform="translate(237.741 197.13)" fill="#0e00aa"/>
    <circle id="Ellipse_58" data-name="Ellipse 58" cx="8.2" cy="8.2" r="8.2" transform="translate(262.248 197.13)" fill="#0e00aa"/>
    <circle id="Ellipse_59" data-name="Ellipse 59" cx="8.2" cy="8.2" r="8.2" transform="translate(237.741 221.637)" fill="#0e00aa"/>
    <circle id="Ellipse_60" data-name="Ellipse 60" cx="8.2" cy="8.2" r="8.2" transform="translate(262.128 221.757)" fill="#0e00aa"/>
    <circle id="Ellipse_61" data-name="Ellipse 61" cx="8.2" cy="8.2" r="8.2" transform="translate(237.555 246.263)" fill="#0e00aa"/>
    <circle id="Ellipse_62" data-name="Ellipse 62" cx="8.2" cy="8.2" r="8.2" transform="translate(262.248 246.384)" fill="#0e00aa"/>
    <circle id="Ellipse_63" data-name="Ellipse 63" cx="8.2" cy="8.2" r="8.2" transform="translate(286.874 246.263)" fill="#fa151a"/>
    <rect id="Rectangle_79" data-name="Rectangle 79" width="16.338" height="40.945" rx="8.169" transform="translate(286.885 197.099)" fill="#fa151a"/>
    <path id="Path_61" data-name="Path 61" d="M443.056,213.468h5.353c.408,0,.6.144.6.576v1.512c0,.432-.192.6-.6.6H440.32c-.36,0-.5-.216-.5-.624V200.459c0-.432.144-.624.576-.624h2.088c.432,0,.576.192.576.624Z" transform="translate(-119.924 -2.517)" fill="#0e00aa"/>
    <path id="Path_62" data-name="Path 62" d="M476.274,216.407c0,.384-.144.552-.528.552H469.6v1.777c0,.84.456,1.32,1.872,1.32s1.872-.48,1.872-1.32v-.12c0-.408.168-.6.6-.6h1.68a.524.524,0,0,1,.6.6v.264c0,2.16-1.248,3.553-4.776,3.553s-4.92-1.392-4.92-3.553v-5.256c0-2.136,1.416-3.529,4.944-3.529,3.5,0,4.8,1.392,4.8,3.529Zm-6.673-1.56h3.744V213.79c0-.84-.528-1.32-1.872-1.32-1.368,0-1.872.48-1.872,1.32Z" transform="translate(-135.763 -8.6)" fill="#0e00aa"/>
    <path id="Path_63" data-name="Path 63" d="M501.053,206.454c.408,0,.6.144.6.552v1.344c0,.432-.192.6-.6.6h-2.184v5.52c0,.888.576,1.3,1.92,1.3h.528c.432,0,.6.168.6.6v1.392c0,.432-.168.6-.6.6h-1.008c-3.528,0-4.608-1.2-4.608-3.552V208.95h-1.176c-.408,0-.576-.168-.576-.6v-1.2c0-.408.168-.528.576-.576l1.1-.12h.072v-2.3c0-.432.168-.6.6-.6h1.992c.432,0,.576.168.576.6v2.3Z" transform="translate(-152.02 -4.72)" fill="#0e00aa"/>
    <path id="Path_64" data-name="Path 64" d="M516.88,196.19c0-.432.144-.6.576-.6h2.064c.408,0,.552.168.552.6v1.776c0,1.8-1.152,3-3.457,3.552-.408.1-.6.024-.744-.384l-.48-1.344c-.144-.408,0-.624.384-.744.864-.288,1.1-.648,1.1-1.248Z" transform="translate(-164.702)" fill="#0e00aa"/>
    <path id="Path_65" data-name="Path 65" d="M536.071,213.286c0-.744-.72-.984-1.752-.984s-1.728.24-1.728.984v.264a.947.947,0,0,0,.744.84l3.456,1.225c1.488.528,2.3,1.344,2.3,2.5v1.224c0,1.536-1.368,3.1-4.848,3.1s-4.8-1.56-4.8-3.1v-.552c0-.384.144-.552.552-.552h1.776c.408,0,.552.168.552.552v.408c0,.744.84,1.008,1.92,1.008s1.944-.264,1.944-1.008v-.408c0-.408-.312-.624-1.08-.912l-3.481-1.272a2.959,2.959,0,0,1-1.9-2.544v-.768c0-1.536,1.128-3.192,4.609-3.192,3.456,0,4.584,1.656,4.584,3.192v.456c0,.408-.12.552-.552.552H536.6c-.384,0-.528-.144-.528-.552Z" transform="translate(-173.068 -8.6)" fill="#0e00aa"/>
    <path id="Path_66" data-name="Path 66" d="M443.056,270.746v5.161c0,.432-.144.624-.576.624h-2.088c-.432,0-.576-.192-.576-.624V260.833c0-.432.144-.624.576-.624h5.04c4.344,0,5.809,1.9,5.809,3.912v2.712c0,2.016-1.464,3.912-5.809,3.912Zm0-7.848v5.16h2.376c1.608,0,2.592-.6,2.592-1.776V264.7c0-1.2-.984-1.8-2.592-1.8Z" transform="translate(-119.924 -38.314)" fill="#0e00aa"/>
    <path id="Path_67" data-name="Path 67" d="M476.512,275.242c0,.432-.144.624-.552.624h-1.992c-.432,0-.6-.192-.6-.624V259.712c0-.432.168-.624.6-.624h1.992c.408,0,.552.192.552.624Z" transform="translate(-139.818 -37.649)" fill="#0e00aa"/>
    <path id="Path_68" data-name="Path 68" d="M487.68,273.924c0-2.136,1.416-3.457,4.848-3.457,3.5,0,4.825,1.32,4.825,3.457v8.065c0,.432-.168.624-.576.624h-1.8c-.432,0-.528-.192-.576-.624l-.048-.5a5.485,5.485,0,0,1-3.553,1.32c-2.352,0-3.456-1.416-3.456-3v-1.08c0-1.608,1.224-3.024,3.6-3.024h3.312v-1.536c0-.864-.408-1.344-1.8-1.344-1.368,0-1.848.384-1.848,1.248v.168c0,.432-.168.6-.576.6h-1.776c-.432,0-.576-.168-.576-.6Zm6.577,5.352v-1.368h-2.688c-.936,0-1.152.456-1.152,1.08v.384c0,.72.48.936,1.2.936A4.677,4.677,0,0,0,494.257,279.277Z" transform="translate(-148.105 -44.397)" fill="#0e00aa"/>
    <path id="Path_69" data-name="Path 69" d="M520.728,277.036a14.046,14.046,0,0,1,.408,2.016,18.238,18.238,0,0,1,.5-1.92l1.9-5.592c.12-.384.24-.6.648-.6h1.824c.432,0,.72.216.576.6l-5.3,15.577c-.1.312-.24.6-.672.6h-1.44c-.432,0-.7-.192-.576-.6l1.176-3.912-4.057-11.665c-.144-.384.144-.6.552-.6h1.992c.432,0,.552.24.672.6Z" transform="translate(-164.902 -44.677)" fill="#0e00aa"/>
    <path id="Path_70" data-name="Path 70" d="M442.727,332.608c0,1.2.96,1.8,2.568,1.8s2.616-.6,2.616-1.8v-11.4c0-.432.144-.624.576-.624h2.088c.432,0,.552.192.552.624v11.977c0,2.016-1.488,3.912-5.833,3.912s-5.832-1.9-5.832-3.912V321.207c0-.432.168-.624.6-.624h2.088c.408,0,.576.192.576.624Z" transform="translate(-119.715 -74.111)" fill="#0e00aa"/>
    <path id="Path_71" data-name="Path 71" d="M477.881,331.034c.432,0,.552.168.576.576l.048.576a5.845,5.845,0,0,1,3.84-1.344,3.138,3.138,0,0,1,3.48,3.216v8.3c0,.432-.168.624-.6.624h-1.944c-.432,0-.624-.192-.624-.624v-7.513c0-.864-.264-1.272-1.3-1.272a4.916,4.916,0,0,0-2.784,1.08v7.7c0,.432-.144.624-.552.624h-1.992c-.432,0-.6-.192-.6-.624V331.61c0-.408.168-.576.6-.576Z" transform="translate(-141.042 -80.194)" fill="#0e00aa"/>
    <path id="Path_72" data-name="Path 72" d="M512.956,334.034c0-.744-.72-.984-1.752-.984s-1.728.24-1.728.984v.264a.947.947,0,0,0,.744.84l3.457,1.224c1.488.528,2.3,1.344,2.3,2.5v1.224c0,1.536-1.368,3.1-4.848,3.1s-4.8-1.56-4.8-3.1v-.552c0-.384.144-.552.552-.552h1.776c.408,0,.552.168.552.552v.408c0,.744.84,1.008,1.92,1.008s1.944-.264,1.944-1.008v-.408c0-.408-.312-.624-1.08-.912l-3.481-1.272a2.959,2.959,0,0,1-1.9-2.544v-.768c0-1.536,1.128-3.192,4.609-3.192,3.456,0,4.585,1.656,4.585,3.192v.456c0,.408-.12.552-.552.552h-1.776c-.384,0-.528-.144-.528-.552Z" transform="translate(-159.363 -80.194)" fill="#0e00aa"/>
    <path id="Path_73" data-name="Path 73" d="M534.971,334.3c0-2.136,1.416-3.457,4.848-3.457,3.5,0,4.824,1.32,4.824,3.457v8.065c0,.432-.168.624-.576.624h-1.8c-.432,0-.528-.192-.576-.624l-.048-.5a5.484,5.484,0,0,1-3.552,1.32c-2.353,0-3.457-1.416-3.457-3V339.1c0-1.608,1.224-3.024,3.6-3.024h3.312v-1.536c0-.864-.408-1.344-1.8-1.344-1.368,0-1.848.384-1.848,1.248v.168c0,.432-.168.6-.576.6h-1.776c-.432,0-.576-.168-.576-.6Zm6.576,5.352v-1.368h-2.688c-.936,0-1.152.456-1.152,1.08v.384c0,.72.48.936,1.2.936A4.675,4.675,0,0,0,541.548,339.651Z" transform="translate(-176.144 -80.194)" fill="#0e00aa"/>
    <path id="Path_74" data-name="Path 74" d="M565.4,324.125v-1.488c0-2.136,1.632-3.528,5.16-3.528h.216c.408,0,.6.144.6.576v1.392c0,.432-.192.624-.6.624h-.216c-1.368,0-1.992.408-1.992,1.3v1.128h1.992c.408,0,.6.144.6.552v1.344c0,.432-.192.6-.6.6h-1.992v8.785c0,.432-.144.624-.576.624H566c-.432,0-.6-.192-.6-.624v-8.785h-1.3c-.408,0-.576-.168-.576-.6v-1.2c0-.408.168-.528.576-.576l1.224-.12Z" transform="translate(-193.276 -73.237)" fill="#0e00aa"/>
    <path id="Path_75" data-name="Path 75" d="M595.269,337.155c0,.384-.144.552-.528.552H588.6v1.776c0,.84.456,1.32,1.873,1.32s1.872-.48,1.872-1.32v-.12c0-.408.168-.6.6-.6h1.68a.524.524,0,0,1,.6.6v.264c0,2.16-1.248,3.553-4.777,3.553s-4.92-1.392-4.92-3.553V334.37c0-2.136,1.416-3.528,4.945-3.528,3.5,0,4.8,1.392,4.8,3.528Zm-6.673-1.56h3.744v-1.056c0-.84-.528-1.32-1.872-1.32-1.369,0-1.873.48-1.873,1.32Z" transform="translate(-206.318 -80.194)" fill="#0e00aa"/>
  </g>
</svg>
